<svg xmlns="http://www.w3.org/2000/svg" viewBox="0 0 32 32"><defs><style>.cls-1{fill:#44d62c;}</style></defs><title>icon</title><g id="Layer_2" data-name="Layer 2"><path class="cls-1" d="M16,30A14,14,0,1,1,30,16,14,14,0,0,1,16,30ZM16,3.06A12.94,12.94,0,1,0,28.94,16,12.95,12.95,0,0,0,16,3.06Z"/><path class="cls-1" d="M20.13,9.26H11.87a2.6,2.6,0,0,0-2.6,2.61v8.26a2.6,2.6,0,0,0,2.6,2.61h8.26a2.61,2.61,0,0,0,2.61-2.61V11.87A2.61,2.61,0,0,0,20.13,9.26Zm.75,1.56h.3V13.1H18.9V10.82Zm-6.8,3.8a2.36,2.36,0,0,1,3.84,0A2.28,2.28,0,0,1,18.37,16a2.37,2.37,0,1,1-4.29-1.38Zm7.35,5.51a1.3,1.3,0,0,1-1.3,1.29H11.87a1.29,1.29,0,0,1-1.29-1.29V14.62h2A3.68,3.68,0,1,0,19.69,16a3.51,3.51,0,0,0-.28-1.38h2Z"/></g></svg>